<?xml version="1.0" encoding="utf-8"?>
<!-- Generator: Adobe Illustrator 24.0.0, SVG Export Plug-In . SVG Version: 6.00 Build 0)  -->
<svg version="1.1" id="Layer_1" xmlns="http://www.w3.org/2000/svg" xmlns:xlink="http://www.w3.org/1999/xlink" x="0px" y="0px"
	 viewBox="0 0 379.1 271" style="enable-background:new 0 0 379.1 271;" xml:space="preserve">
<style type="text/css">
	.st0{fill:#F69682;}
	.st1{fill:#F8CDBE;}
	.st2{fill:#D1E8C9;}
	.st3{fill:#9BD8DF;}
	.st4{fill:#CEA3CC;}
	.st5{fill:none;stroke:#C2C1C0;stroke-miterlimit:10;}
	.st6{fill:#FFFFFF;}
	.st7{fill:#7C7B7B;stroke:#7B7A7A;stroke-miterlimit:10;}
	.st8{fill:none;stroke:#000000;stroke-miterlimit:10;}
</style>
<g>
	<path class="st0" d="M192.1,55.2c13.7-0.5,27.2-2.4,40.5,2.8c14.6,1.5,16.9,5.3,26.2,9.8c27,13,34.4,44.1,42.7,70.6
		c15.7,59.9,19.8,80-0.6,69.8c-5.4-35.9-8.5-60.5-14.5-74.9c-12.6-29.1-35.4-55-68-58.4c-41.7-2.4-52.2,5.6-76.3,16.2
		c-17.2,11.2-29.8,28.5-39,46.9c-25.9,52.1-20.2,51.9-23.9,68.1c-0.6,3.5-1.2,9.4-6.4,9c-11,4.8-8-3.4-8.3-10
		c4.4-54.3,25.4-107.7,69.6-136.3c16.6-10.1,49-13.4,58.1-13.9C192.1,55.1,192.1,55.2,192.1,55.2z"/>
	<path class="st1" d="M204.4,97.9c-21.9-0.6-24,4.1-38.6,13c-24.4,11.8-31.2,31.9-41.1,52.4c-5.5,12.9-6.3,26.9-11.2,40.4
		c-1.3,3.2,0.5,7.2-2.7,9.6c-23,7.8-18.1-4.4-15-20.3c3.2-18.4,9.5-35,18.2-51.8c5.5-13,19-33.4,25.9-38.2
		c16.8-13.7,38.3-22.7,56.7-21.7c76.2,4.3,78.9,55.8,86.2,73.3c14.9,64.9,8.4,55.9-5,56.4c-2.2-0.6-3.2-2.4-4.1-4.7
		c-5.2-24-4.3-49.4-17-71.6C244.8,112,217.8,96.4,204.4,97.9z"/>
	<path class="st2" d="M254.5,210.9c-10.4,2.2-9.5-10.8-10.8-18c-1-9.8-3-19.9-5.7-29.8c-11.4-28.2-32.3-59.2-60.5-37.2
		c-7.3,8.6-15.8,17-22.6,26.7c-24.1,41.6-17.1,67.3-33.6,60.6c-2.4-7.7,1.6-16.7,3.5-24.8c4-21.7,15.2-41.9,30.2-58.4
		c5.7-8.6,14.6-13.3,23.6-18.3c11.8-8.5,26.5-7.8,39.3-1.8c30,17.6,36.6,54.9,42.1,86.6C262.3,208.6,264.1,211.7,254.5,210.9z"/>
	<path class="st3" d="M238.8,203.6c1.6,7.4-7.4,7.6-11.6,4.9c-0.6-4.2-1.5-8-1.8-12.4c-5.3-21-11.2-56.8-38.9-52.2
		c-15.5,6.4-27.5,43.9-34.3,54.1c-5.4,14.1-2.2,14.8-13,13.8c-4.3-1.9,1.9-8.4,1.5-11.4c4-16.8,5.2-13.6,7.8-20.5
		c3.6-12.7,9.4-23.5,17.8-33.8c40.1-53,70,21.1,72.6,57.5C238.9,203.6,238.9,203.6,238.8,203.6z"/>
	<path class="st4" d="M157.6,212.1c-13.4,3,17.3-45.6,18.4-48.4c3.3-5.4,9-9.5,15.6-9.5c26.8,2.2,32,55.1,28.1,54
		c-7.5,2.8-6.3-3-7.2-8.2c-1.9-16.5-4.3-32.3-18.6-36.6c-14.5-3.5-22.6,28.6-28.7,36.8C161.3,206.7,163.8,212.9,157.6,212.1z"/>
</g>
</svg>
